<svg version="1.1" xmlns="http://www.w3.org/2000/svg" xmlns:xlink="http://www.w3.org/1999/xlink" width="987.9658203125" height="672"><defs/><g><text fill="#eeeeee" stroke="none" font-family="Arial" font-size="24px" font-style="normal" font-weight="normal" text-decoration="none" x="0" y="0">UNREGISTERED</text><text fill="#eeeeee" stroke="none" font-family="Arial" font-size="24px" font-style="normal" font-weight="normal" text-decoration="none" x="0" y="30">UNREGISTERED</text><text fill="#eeeeee" stroke="none" font-family="Arial" font-size="24px" font-style="normal" font-weight="normal" text-decoration="none" x="0" y="60">UNREGISTERED</text><text fill="#eeeeee" stroke="none" font-family="Arial" font-size="24px" font-style="normal" font-weight="normal" text-decoration="none" x="0" y="90">UNREGISTERED</text><text fill="#eeeeee" stroke="none" font-family="Arial" font-size="24px" font-style="normal" font-weight="normal" text-decoration="none" x="0" y="120">UNREGISTERED</text><text fill="#eeeeee" stroke="none" font-family="Arial" font-size="24px" font-style="normal" font-weight="normal" text-decoration="none" x="0" y="150">UNREGISTERED</text><text fill="#eeeeee" stroke="none" font-family="Arial" font-size="24px" font-style="normal" font-weight="normal" text-decoration="none" x="0" y="180">UNREGISTERED</text><text fill="#eeeeee" stroke="none" font-family="Arial" font-size="24px" font-style="normal" font-weight="normal" text-decoration="none" x="0" y="210">UNREGISTERED</text><text fill="#eeeeee" stroke="none" font-family="Arial" font-size="24px" font-style="normal" font-weight="normal" text-decoration="none" x="0" y="240">UNREGISTERED</text><text fill="#eeeeee" stroke="none" font-family="Arial" font-size="24px" font-style="normal" font-weight="normal" text-decoration="none" x="0" y="270">UNREGISTERED</text><text fill="#eeeeee" stroke="none" font-family="Arial" font-size="24px" font-style="normal" font-weight="normal" text-decoration="none" x="0" y="300">UNREGISTERED</text><text fill="#eeeeee" stroke="none" font-family="Arial" font-size="24px" font-style="normal" font-weight="normal" text-decoration="none" x="0" y="330">UNREGISTERED</text><text fill="#eeeeee" stroke="none" font-family="Arial" font-size="24px" font-style="normal" font-weight="normal" text-decoration="none" x="0" y="360">UNREGISTERED</text><text fill="#eeeeee" stroke="none" font-family="Arial" font-size="24px" font-style="normal" font-weight="normal" text-decoration="none" x="0" y="390">UNREGISTERED</text><text fill="#eeeeee" stroke="none" font-family="Arial" font-size="24px" font-style="normal" font-weight="normal" text-decoration="none" x="0" y="420">UNREGISTERED</text><text fill="#eeeeee" stroke="none" font-family="Arial" font-size="24px" font-style="normal" font-weight="normal" text-decoration="none" x="0" y="450">UNREGISTERED</text><text fill="#eeeeee" stroke="none" font-family="Arial" font-size="24px" font-style="normal" font-weight="normal" text-decoration="none" x="0" y="480">UNREGISTERED</text><text fill="#eeeeee" stroke="none" font-family="Arial" font-size="24px" font-style="normal" font-weight="normal" text-decoration="none" x="0" y="510">UNREGISTERED</text><text fill="#eeeeee" stroke="none" font-family="Arial" font-size="24px" font-style="normal" font-weight="normal" text-decoration="none" x="0" y="540">UNREGISTERED</text><text fill="#eeeeee" stroke="none" font-family="Arial" font-size="24px" font-style="normal" font-weight="normal" text-decoration="none" x="0" y="570">UNREGISTERED</text><text fill="#eeeeee" stroke="none" font-family="Arial" font-size="24px" font-style="normal" font-weight="normal" text-decoration="none" x="0" y="600">UNREGISTERED</text><text fill="#eeeeee" stroke="none" font-family="Arial" font-size="24px" font-style="normal" font-weight="normal" text-decoration="none" x="0" y="630">UNREGISTERED</text><text fill="#eeeeee" stroke="none" font-family="Arial" font-size="24px" font-style="normal" font-weight="normal" text-decoration="none" x="0" y="660">UNREGISTERED</text><text fill="#eeeeee" stroke="none" font-family="Arial" font-size="24px" font-style="normal" font-weight="normal" text-decoration="none" x="200" y="0">UNREGISTERED</text><text fill="#eeeeee" stroke="none" font-family="Arial" font-size="24px" font-style="normal" font-weight="normal" text-decoration="none" x="200" y="30">UNREGISTERED</text><text fill="#eeeeee" stroke="none" font-family="Arial" font-size="24px" font-style="normal" font-weight="normal" text-decoration="none" x="200" y="60">UNREGISTERED</text><text fill="#eeeeee" stroke="none" font-family="Arial" font-size="24px" font-style="normal" font-weight="normal" text-decoration="none" x="200" y="90">UNREGISTERED</text><text fill="#eeeeee" stroke="none" font-family="Arial" font-size="24px" font-style="normal" font-weight="normal" text-decoration="none" x="200" y="120">UNREGISTERED</text><text fill="#eeeeee" stroke="none" font-family="Arial" font-size="24px" font-style="normal" font-weight="normal" text-decoration="none" x="200" y="150">UNREGISTERED</text><text fill="#eeeeee" stroke="none" font-family="Arial" font-size="24px" font-style="normal" font-weight="normal" text-decoration="none" x="200" y="180">UNREGISTERED</text><text fill="#eeeeee" stroke="none" font-family="Arial" font-size="24px" font-style="normal" font-weight="normal" text-decoration="none" x="200" y="210">UNREGISTERED</text><text fill="#eeeeee" stroke="none" font-family="Arial" font-size="24px" font-style="normal" font-weight="normal" text-decoration="none" x="200" y="240">UNREGISTERED</text><text fill="#eeeeee" stroke="none" font-family="Arial" font-size="24px" font-style="normal" font-weight="normal" text-decoration="none" x="200" y="270">UNREGISTERED</text><text fill="#eeeeee" stroke="none" font-family="Arial" font-size="24px" font-style="normal" font-weight="normal" text-decoration="none" x="200" y="300">UNREGISTERED</text><text fill="#eeeeee" stroke="none" font-family="Arial" font-size="24px" font-style="normal" font-weight="normal" text-decoration="none" x="200" y="330">UNREGISTERED</text><text fill="#eeeeee" stroke="none" font-family="Arial" font-size="24px" font-style="normal" font-weight="normal" text-decoration="none" x="200" y="360">UNREGISTERED</text><text fill="#eeeeee" stroke="none" font-family="Arial" font-size="24px" font-style="normal" font-weight="normal" text-decoration="none" x="200" y="390">UNREGISTERED</text><text fill="#eeeeee" stroke="none" font-family="Arial" font-size="24px" font-style="normal" font-weight="normal" text-decoration="none" x="200" y="420">UNREGISTERED</text><text fill="#eeeeee" stroke="none" font-family="Arial" font-size="24px" font-style="normal" font-weight="normal" text-decoration="none" x="200" y="450">UNREGISTERED</text><text fill="#eeeeee" stroke="none" font-family="Arial" font-size="24px" font-style="normal" font-weight="normal" text-decoration="none" x="200" y="480">UNREGISTERED</text><text fill="#eeeeee" stroke="none" font-family="Arial" font-size="24px" font-style="normal" font-weight="normal" text-decoration="none" x="200" y="510">UNREGISTERED</text><text fill="#eeeeee" stroke="none" font-family="Arial" font-size="24px" font-style="normal" font-weight="normal" text-decoration="none" x="200" y="540">UNREGISTERED</text><text fill="#eeeeee" stroke="none" font-family="Arial" font-size="24px" font-style="normal" font-weight="normal" text-decoration="none" x="200" y="570">UNREGISTERED</text><text fill="#eeeeee" stroke="none" font-family="Arial" font-size="24px" font-style="normal" font-weight="normal" text-decoration="none" x="200" y="600">UNREGISTERED</text><text fill="#eeeeee" stroke="none" font-family="Arial" font-size="24px" font-style="normal" font-weight="normal" text-decoration="none" x="200" y="630">UNREGISTERED</text><text fill="#eeeeee" stroke="none" font-family="Arial" font-size="24px" font-style="normal" font-weight="normal" text-decoration="none" x="200" y="660">UNREGISTERED</text><text fill="#eeeeee" stroke="none" font-family="Arial" font-size="24px" font-style="normal" font-weight="normal" text-decoration="none" x="400" y="0">UNREGISTERED</text><text fill="#eeeeee" stroke="none" font-family="Arial" font-size="24px" font-style="normal" font-weight="normal" text-decoration="none" x="400" y="30">UNREGISTERED</text><text fill="#eeeeee" stroke="none" font-family="Arial" font-size="24px" font-style="normal" font-weight="normal" text-decoration="none" x="400" y="60">UNREGISTERED</text><text fill="#eeeeee" stroke="none" font-family="Arial" font-size="24px" font-style="normal" font-weight="normal" text-decoration="none" x="400" y="90">UNREGISTERED</text><text fill="#eeeeee" stroke="none" font-family="Arial" font-size="24px" font-style="normal" font-weight="normal" text-decoration="none" x="400" y="120">UNREGISTERED</text><text fill="#eeeeee" stroke="none" font-family="Arial" font-size="24px" font-style="normal" font-weight="normal" text-decoration="none" x="400" y="150">UNREGISTERED</text><text fill="#eeeeee" stroke="none" font-family="Arial" font-size="24px" font-style="normal" font-weight="normal" text-decoration="none" x="400" y="180">UNREGISTERED</text><text fill="#eeeeee" stroke="none" font-family="Arial" font-size="24px" font-style="normal" font-weight="normal" text-decoration="none" x="400" y="210">UNREGISTERED</text><text fill="#eeeeee" stroke="none" font-family="Arial" font-size="24px" font-style="normal" font-weight="normal" text-decoration="none" x="400" y="240">UNREGISTERED</text><text fill="#eeeeee" stroke="none" font-family="Arial" font-size="24px" font-style="normal" font-weight="normal" text-decoration="none" x="400" y="270">UNREGISTERED</text><text fill="#eeeeee" stroke="none" font-family="Arial" font-size="24px" font-style="normal" font-weight="normal" text-decoration="none" x="400" y="300">UNREGISTERED</text><text fill="#eeeeee" stroke="none" font-family="Arial" font-size="24px" font-style="normal" font-weight="normal" text-decoration="none" x="400" y="330">UNREGISTERED</text><text fill="#eeeeee" stroke="none" font-family="Arial" font-size="24px" font-style="normal" font-weight="normal" text-decoration="none" x="400" y="360">UNREGISTERED</text><text fill="#eeeeee" stroke="none" font-family="Arial" font-size="24px" font-style="normal" font-weight="normal" text-decoration="none" x="400" y="390">UNREGISTERED</text><text fill="#eeeeee" stroke="none" font-family="Arial" font-size="24px" font-style="normal" font-weight="normal" text-decoration="none" x="400" y="420">UNREGISTERED</text><text fill="#eeeeee" stroke="none" font-family="Arial" font-size="24px" font-style="normal" font-weight="normal" text-decoration="none" x="400" y="450">UNREGISTERED</text><text fill="#eeeeee" stroke="none" font-family="Arial" font-size="24px" font-style="normal" font-weight="normal" text-decoration="none" x="400" y="480">UNREGISTERED</text><text fill="#eeeeee" stroke="none" font-family="Arial" font-size="24px" font-style="normal" font-weight="normal" text-decoration="none" x="400" y="510">UNREGISTERED</text><text fill="#eeeeee" stroke="none" font-family="Arial" font-size="24px" font-style="normal" font-weight="normal" text-decoration="none" x="400" y="540">UNREGISTERED</text><text fill="#eeeeee" stroke="none" font-family="Arial" font-size="24px" font-style="normal" font-weight="normal" text-decoration="none" x="400" y="570">UNREGISTERED</text><text fill="#eeeeee" stroke="none" font-family="Arial" font-size="24px" font-style="normal" font-weight="normal" text-decoration="none" x="400" y="600">UNREGISTERED</text><text fill="#eeeeee" stroke="none" font-family="Arial" font-size="24px" font-style="normal" font-weight="normal" text-decoration="none" x="400" y="630">UNREGISTERED</text><text fill="#eeeeee" stroke="none" font-family="Arial" font-size="24px" font-style="normal" font-weight="normal" text-decoration="none" x="400" y="660">UNREGISTERED</text><text fill="#eeeeee" stroke="none" font-family="Arial" font-size="24px" font-style="normal" font-weight="normal" text-decoration="none" x="600" y="0">UNREGISTERED</text><text fill="#eeeeee" stroke="none" font-family="Arial" font-size="24px" font-style="normal" font-weight="normal" text-decoration="none" x="600" y="30">UNREGISTERED</text><text fill="#eeeeee" stroke="none" font-family="Arial" font-size="24px" font-style="normal" font-weight="normal" text-decoration="none" x="600" y="60">UNREGISTERED</text><text fill="#eeeeee" stroke="none" font-family="Arial" font-size="24px" font-style="normal" font-weight="normal" text-decoration="none" x="600" y="90">UNREGISTERED</text><text fill="#eeeeee" stroke="none" font-family="Arial" font-size="24px" font-style="normal" font-weight="normal" text-decoration="none" x="600" y="120">UNREGISTERED</text><text fill="#eeeeee" stroke="none" font-family="Arial" font-size="24px" font-style="normal" font-weight="normal" text-decoration="none" x="600" y="150">UNREGISTERED</text><text fill="#eeeeee" stroke="none" font-family="Arial" font-size="24px" font-style="normal" font-weight="normal" text-decoration="none" x="600" y="180">UNREGISTERED</text><text fill="#eeeeee" stroke="none" font-family="Arial" font-size="24px" font-style="normal" font-weight="normal" text-decoration="none" x="600" y="210">UNREGISTERED</text><text fill="#eeeeee" stroke="none" font-family="Arial" font-size="24px" font-style="normal" font-weight="normal" text-decoration="none" x="600" y="240">UNREGISTERED</text><text fill="#eeeeee" stroke="none" font-family="Arial" font-size="24px" font-style="normal" font-weight="normal" text-decoration="none" x="600" y="270">UNREGISTERED</text><text fill="#eeeeee" stroke="none" font-family="Arial" font-size="24px" font-style="normal" font-weight="normal" text-decoration="none" x="600" y="300">UNREGISTERED</text><text fill="#eeeeee" stroke="none" font-family="Arial" font-size="24px" font-style="normal" font-weight="normal" text-decoration="none" x="600" y="330">UNREGISTERED</text><text fill="#eeeeee" stroke="none" font-family="Arial" font-size="24px" font-style="normal" font-weight="normal" text-decoration="none" x="600" y="360">UNREGISTERED</text><text fill="#eeeeee" stroke="none" font-family="Arial" font-size="24px" font-style="normal" font-weight="normal" text-decoration="none" x="600" y="390">UNREGISTERED</text><text fill="#eeeeee" stroke="none" font-family="Arial" font-size="24px" font-style="normal" font-weight="normal" text-decoration="none" x="600" y="420">UNREGISTERED</text><text fill="#eeeeee" stroke="none" font-family="Arial" font-size="24px" font-style="normal" font-weight="normal" text-decoration="none" x="600" y="450">UNREGISTERED</text><text fill="#eeeeee" stroke="none" font-family="Arial" font-size="24px" font-style="normal" font-weight="normal" text-decoration="none" x="600" y="480">UNREGISTERED</text><text fill="#eeeeee" stroke="none" font-family="Arial" font-size="24px" font-style="normal" font-weight="normal" text-decoration="none" x="600" y="510">UNREGISTERED</text><text fill="#eeeeee" stroke="none" font-family="Arial" font-size="24px" font-style="normal" font-weight="normal" text-decoration="none" x="600" y="540">UNREGISTERED</text><text fill="#eeeeee" stroke="none" font-family="Arial" font-size="24px" font-style="normal" font-weight="normal" text-decoration="none" x="600" y="570">UNREGISTERED</text><text fill="#eeeeee" stroke="none" font-family="Arial" font-size="24px" font-style="normal" font-weight="normal" text-decoration="none" x="600" y="600">UNREGISTERED</text><text fill="#eeeeee" stroke="none" font-family="Arial" font-size="24px" font-style="normal" font-weight="normal" text-decoration="none" x="600" y="630">UNREGISTERED</text><text fill="#eeeeee" stroke="none" font-family="Arial" font-size="24px" font-style="normal" font-weight="normal" text-decoration="none" x="600" y="660">UNREGISTERED</text><text fill="#eeeeee" stroke="none" font-family="Arial" font-size="24px" font-style="normal" font-weight="normal" text-decoration="none" x="800" y="0">UNREGISTERED</text><text fill="#eeeeee" stroke="none" font-family="Arial" font-size="24px" font-style="normal" font-weight="normal" text-decoration="none" x="800" y="30">UNREGISTERED</text><text fill="#eeeeee" stroke="none" font-family="Arial" font-size="24px" font-style="normal" font-weight="normal" text-decoration="none" x="800" y="60">UNREGISTERED</text><text fill="#eeeeee" stroke="none" font-family="Arial" font-size="24px" font-style="normal" font-weight="normal" text-decoration="none" x="800" y="90">UNREGISTERED</text><text fill="#eeeeee" stroke="none" font-family="Arial" font-size="24px" font-style="normal" font-weight="normal" text-decoration="none" x="800" y="120">UNREGISTERED</text><text fill="#eeeeee" stroke="none" font-family="Arial" font-size="24px" font-style="normal" font-weight="normal" text-decoration="none" x="800" y="150">UNREGISTERED</text><text fill="#eeeeee" stroke="none" font-family="Arial" font-size="24px" font-style="normal" font-weight="normal" text-decoration="none" x="800" y="180">UNREGISTERED</text><text fill="#eeeeee" stroke="none" font-family="Arial" font-size="24px" font-style="normal" font-weight="normal" text-decoration="none" x="800" y="210">UNREGISTERED</text><text fill="#eeeeee" stroke="none" font-family="Arial" font-size="24px" font-style="normal" font-weight="normal" text-decoration="none" x="800" y="240">UNREGISTERED</text><text fill="#eeeeee" stroke="none" font-family="Arial" font-size="24px" font-style="normal" font-weight="normal" text-decoration="none" x="800" y="270">UNREGISTERED</text><text fill="#eeeeee" stroke="none" font-family="Arial" font-size="24px" font-style="normal" font-weight="normal" text-decoration="none" x="800" y="300">UNREGISTERED</text><text fill="#eeeeee" stroke="none" font-family="Arial" font-size="24px" font-style="normal" font-weight="normal" text-decoration="none" x="800" y="330">UNREGISTERED</text><text fill="#eeeeee" stroke="none" font-family="Arial" font-size="24px" font-style="normal" font-weight="normal" text-decoration="none" x="800" y="360">UNREGISTERED</text><text fill="#eeeeee" stroke="none" font-family="Arial" font-size="24px" font-style="normal" font-weight="normal" text-decoration="none" x="800" y="390">UNREGISTERED</text><text fill="#eeeeee" stroke="none" font-family="Arial" font-size="24px" font-style="normal" font-weight="normal" text-decoration="none" x="800" y="420">UNREGISTERED</text><text fill="#eeeeee" stroke="none" font-family="Arial" font-size="24px" font-style="normal" font-weight="normal" text-decoration="none" x="800" y="450">UNREGISTERED</text><text fill="#eeeeee" stroke="none" font-family="Arial" font-size="24px" font-style="normal" font-weight="normal" text-decoration="none" x="800" y="480">UNREGISTERED</text><text fill="#eeeeee" stroke="none" font-family="Arial" font-size="24px" font-style="normal" font-weight="normal" text-decoration="none" x="800" y="510">UNREGISTERED</text><text fill="#eeeeee" stroke="none" font-family="Arial" font-size="24px" font-style="normal" font-weight="normal" text-decoration="none" x="800" y="540">UNREGISTERED</text><text fill="#eeeeee" stroke="none" font-family="Arial" font-size="24px" font-style="normal" font-weight="normal" text-decoration="none" x="800" y="570">UNREGISTERED</text><text fill="#eeeeee" stroke="none" font-family="Arial" font-size="24px" font-style="normal" font-weight="normal" text-decoration="none" x="800" y="600">UNREGISTERED</text><text fill="#eeeeee" stroke="none" font-family="Arial" font-size="24px" font-style="normal" font-weight="normal" text-decoration="none" x="800" y="630">UNREGISTERED</text><text fill="#eeeeee" stroke="none" font-family="Arial" font-size="24px" font-style="normal" font-weight="normal" text-decoration="none" x="800" y="660">UNREGISTERED</text><g transform="translate(2,-10) scale(1,1)"><path fill="#C0C0C0" stroke="none" d="M 67.44873046875 38.5 C 67.44873046875 32.1487248 72.59745526875 27 78.94873046875 27 C 85.30000566875 27 90.44873046875 32.1487248 90.44873046875 38.5 C 90.44873046875 44.8512752 85.30000566875 50 78.94873046875 50 C 72.59745526875 50 67.44873046875 44.8512752 67.44873046875 38.5 Z" opacity="0.2"/></g><g transform="translate(2,-10) scale(1,1)"><path fill="#ffffff" stroke="none" d="M 60.44873046875 31.5 C 60.44873046875 25.1487248 65.59745526875 20 71.94873046875 20 C 78.30000566875 20 83.44873046875 25.1487248 83.44873046875 31.5 C 83.44873046875 37.8512752 78.30000566875 43 71.94873046875 43 C 65.59745526875 43 60.44873046875 37.8512752 60.44873046875 31.5 Z"/></g><g transform="translate(2,-10) scale(1,1)"><path fill="none" stroke="#000000" d="M 60.44873046875 31.5 C 60.44873046875 25.1487248 65.59745526875 20 71.94873046875 20 C 78.30000566875 20 83.44873046875 25.1487248 83.44873046875 31.5 C 83.44873046875 37.8512752 78.30000566875 43 71.94873046875 43 C 65.59745526875 43 60.44873046875 37.8512752 60.44873046875 31.5 Z" stroke-miterlimit="10"/></g><g transform="translate(2,-10) scale(1,1)"><g><path fill="none" stroke="none"/><text fill="#000000" stroke="none" font-family="Arial" font-size="13px" font-style="normal" font-weight="bold" text-decoration="none" x="26.79150390625" y="61">IAdminService</text></g></g><g transform="translate(2,-10) scale(1,1)"><path fill="#C0C0C0" stroke="none" d="M 227.41943359375 38.5 C 227.41943359375 32.1487248 232.56815839375 27 238.91943359375 27 C 245.27070879375 27 250.41943359375 32.1487248 250.41943359375 38.5 C 250.41943359375 44.8512752 245.27070879375 50 238.91943359375 50 C 232.56815839375 50 227.41943359375 44.8512752 227.41943359375 38.5 Z" opacity="0.2"/></g><g transform="translate(2,-10) scale(1,1)"><path fill="#ffffff" stroke="none" d="M 220.41943359375 31.5 C 220.41943359375 25.1487248 225.56815839375 20 231.91943359375 20 C 238.27070879375 20 243.41943359375 25.1487248 243.41943359375 31.5 C 243.41943359375 37.8512752 238.27070879375 43 231.91943359375 43 C 225.56815839375 43 220.41943359375 37.8512752 220.41943359375 31.5 Z"/></g><g transform="translate(2,-10) scale(1,1)"><path fill="none" stroke="#000000" d="M 220.41943359375 31.5 C 220.41943359375 25.1487248 225.56815839375 20 231.91943359375 20 C 238.27070879375 20 243.41943359375 25.1487248 243.41943359375 31.5 C 243.41943359375 37.8512752 238.27070879375 43 231.91943359375 43 C 225.56815839375 43 220.41943359375 37.8512752 220.41943359375 31.5 Z" stroke-miterlimit="10"/></g><g transform="translate(2,-10) scale(1,1)"><g><path fill="none" stroke="none"/><text fill="#000000" stroke="none" font-family="Arial" font-size="13px" font-style="normal" font-weight="bold" text-decoration="none" x="162.55859375" y="61">IBookCategoryService</text></g></g><g transform="translate(2,-10) scale(1,1)"><path fill="#C0C0C0" stroke="none" d="M 382.52783203125 38.5 C 382.52783203125 32.1487248 387.67655683125 27 394.02783203125 27 C 400.37910723125 27 405.52783203125 32.1487248 405.52783203125 38.5 C 405.52783203125 44.8512752 400.37910723125 50 394.02783203125 50 C 387.67655683125 50 382.52783203125 44.8512752 382.52783203125 38.5 Z" opacity="0.2"/></g><g transform="translate(2,-10) scale(1,1)"><path fill="#ffffff" stroke="none" d="M 375.52783203125 31.5 C 375.52783203125 25.1487248 380.67655683125 20 387.02783203125 20 C 393.37910723125 20 398.52783203125 25.1487248 398.52783203125 31.5 C 398.52783203125 37.8512752 393.37910723125 43 387.02783203125 43 C 380.67655683125 43 375.52783203125 37.8512752 375.52783203125 31.5 Z"/></g><g transform="translate(2,-10) scale(1,1)"><path fill="none" stroke="#000000" d="M 375.52783203125 31.5 C 375.52783203125 25.1487248 380.67655683125 20 387.02783203125 20 C 393.37910723125 20 398.52783203125 25.1487248 398.52783203125 31.5 C 398.52783203125 37.8512752 393.37910723125 43 387.02783203125 43 C 380.67655683125 43 375.52783203125 37.8512752 375.52783203125 31.5 Z" stroke-miterlimit="10"/></g><g transform="translate(2,-10) scale(1,1)"><g><path fill="none" stroke="none"/><text fill="#000000" stroke="none" font-family="Arial" font-size="13px" font-style="normal" font-weight="bold" text-decoration="none" x="345.841064453125" y="61">IBookService</text></g></g><g transform="translate(2,-10) scale(1,1)"><path fill="#C0C0C0" stroke="none" d="M 568.18115234375 38.5 C 568.18115234375 32.1487248 573.32987714375 27 579.68115234375 27 C 586.03242754375 27 591.18115234375 32.1487248 591.18115234375 38.5 C 591.18115234375 44.8512752 586.03242754375 50 579.68115234375 50 C 573.32987714375 50 568.18115234375 44.8512752 568.18115234375 38.5 Z" opacity="0.2"/></g><g transform="translate(2,-10) scale(1,1)"><path fill="#ffffff" stroke="none" d="M 561.18115234375 31.5 C 561.18115234375 25.1487248 566.32987714375 20 572.68115234375 20 C 579.03242754375 20 584.18115234375 25.1487248 584.18115234375 31.5 C 584.18115234375 37.8512752 579.03242754375 43 572.68115234375 43 C 566.32987714375 43 561.18115234375 37.8512752 561.18115234375 31.5 Z"/></g><g transform="translate(2,-10) scale(1,1)"><path fill="none" stroke="#000000" d="M 561.18115234375 31.5 C 561.18115234375 25.1487248 566.32987714375 20 572.68115234375 20 C 579.03242754375 20 584.18115234375 25.1487248 584.18115234375 31.5 C 584.18115234375 37.8512752 579.03242754375 43 572.68115234375 43 C 566.32987714375 43 561.18115234375 37.8512752 561.18115234375 31.5 Z" stroke-miterlimit="10"/></g><g transform="translate(2,-10) scale(1,1)"><g><path fill="none" stroke="none"/><text fill="#000000" stroke="none" font-family="Arial" font-size="13px" font-style="normal" font-weight="bold" text-decoration="none" x="472.988037109375" y="61">IBorrowingBooksRecordService</text></g></g><g transform="translate(2,-10) scale(1,1)"><rect fill="#C0C0C0" stroke="none" x="718.248046875" y="31.5" width="19.600000000000023" height="15" opacity="0.2"/></g><g transform="translate(2,-10) scale(1,1)"><rect fill="#C0C0C0" stroke="none" x="718.248046875" y="45.5" width="49" height="25" opacity="0.2"/></g><g transform="translate(2,-10) scale(1,1)"><rect fill="#ffffff" stroke="none" x="711.248046875" y="39.5" width="49" height="24"/></g><g transform="translate(2,-10) scale(1,1)"><path fill="none" stroke="#000000" d="M 711.248046875 39.5 L 760.248046875 39.5 L 760.248046875 63.5 L 711.248046875 63.5 L 711.248046875 39.5 Z Z" stroke-miterlimit="10"/></g><g transform="translate(2,-10) scale(1,1)"><rect fill="#ffffff" stroke="none" x="711.248046875" y="24.5" width="19.600000000000023" height="15"/></g><g transform="translate(2,-10) scale(1,1)"><path fill="none" stroke="#000000" d="M 711.248046875 24.5 L 730.848046875 24.5 L 730.848046875 39.5 L 711.248046875 39.5 L 711.248046875 24.5 Z Z" stroke-miterlimit="10"/></g><g transform="translate(2,-10) scale(1,1)"><rect fill="#ffffff" stroke="none" x="711.248046875" y="38.5" width="49" height="25"/></g><g transform="translate(2,-10) scale(1,1)"><path fill="none" stroke="#000000" d="M 711.248046875 38.5 L 760.248046875 38.5 L 760.248046875 63.5 L 711.248046875 63.5 L 711.248046875 38.5 Z Z" stroke-miterlimit="10"/></g><g transform="translate(2,-10) scale(1,1)"><g><path fill="none" stroke="none"/><text fill="#000000" stroke="none" font-family="Arial" font-size="13px" font-style="normal" font-weight="bold" text-decoration="none" x="722.38623046875" y="57.5">impl</text></g></g><g transform="translate(2,-10) scale(1,1)"><path fill="#C0C0C0" stroke="none" d="M 831.76513671875 38.5 C 831.76513671875 32.1487248 836.91386151875 27 843.26513671875 27 C 849.61641191875 27 854.76513671875 32.1487248 854.76513671875 38.5 C 854.76513671875 44.8512752 849.61641191875 50 843.26513671875 50 C 836.91386151875 50 831.76513671875 44.8512752 831.76513671875 38.5 Z" opacity="0.2"/></g><g transform="translate(2,-10) scale(1,1)"><path fill="#ffffff" stroke="none" d="M 824.76513671875 31.5 C 824.76513671875 25.1487248 829.91386151875 20 836.26513671875 20 C 842.61641191875 20 847.76513671875 25.1487248 847.76513671875 31.5 C 847.76513671875 37.8512752 842.61641191875 43 836.26513671875 43 C 829.91386151875 43 824.76513671875 37.8512752 824.76513671875 31.5 Z"/></g><g transform="translate(2,-10) scale(1,1)"><path fill="none" stroke="#000000" d="M 824.76513671875 31.5 C 824.76513671875 25.1487248 829.91386151875 20 836.26513671875 20 C 842.61641191875 20 847.76513671875 25.1487248 847.76513671875 31.5 C 847.76513671875 37.8512752 842.61641191875 43 836.26513671875 43 C 829.91386151875 43 824.76513671875 37.8512752 824.76513671875 31.5 Z" stroke-miterlimit="10"/></g><g transform="translate(2,-10) scale(1,1)"><g><path fill="none" stroke="none"/><text fill="#000000" stroke="none" font-family="Arial" font-size="13px" font-style="normal" font-weight="bold" text-decoration="none" x="796.874755859375" y="61">IUserService</text></g></g><g transform="translate(2,-10) scale(1,1)"><rect fill="#C0C0C0" stroke="none" x="15" y="519" width="353.35400390625" height="160" opacity="0.2"/></g><g transform="translate(2,-10) scale(1,1)"><rect fill="#ffffff" stroke="none" x="8" y="512" width="353.35400390625" height="160"/></g><g transform="translate(2,-10) scale(1,1)"><path fill="none" stroke="#000000" d="M 8 512 L 361.35400390625 512 L 361.35400390625 672 L 8 672 L 8 512 Z Z" stroke-miterlimit="10"/></g><g transform="translate(2,-10) scale(1,1)"><path fill="none" stroke="#000000" d="M 8 537 L 361.35400390625 537" stroke-miterlimit="10"/></g><g transform="translate(2,-10) scale(1,1)"><path fill="none" stroke="#000000" d="M 8 590 L 361.35400390625 590" stroke-miterlimit="10"/></g><g transform="translate(2,-10) scale(1,1)"><g><path fill="none" stroke="none"/><text fill="#000000" stroke="none" font-family="Arial" font-size="13px" font-style="normal" font-weight="bold" text-decoration="none" x="125.434326171875" y="530">AdminServicreImpl</text></g></g><g transform="translate(2,-10) scale(1,1)"><g><path fill="none" stroke="none"/><text fill="#000000" stroke="none" font-family="Arial" font-size="13px" font-style="normal" font-weight="normal" text-decoration="none" x="13" y="553">-adminMapper: AdminMapper</text></g></g><g transform="translate(2,-10) scale(1,1)"><g><path fill="none" stroke="none"/><text fill="#000000" stroke="none" font-family="Arial" font-size="13px" font-style="normal" font-weight="normal" text-decoration="none" x="13" y="568">-bookMapper: BookMapper</text></g></g><g transform="translate(2,-10) scale(1,1)"><g><path fill="none" stroke="none"/><text fill="#000000" stroke="none" font-family="Arial" font-size="13px" font-style="normal" font-weight="normal" text-decoration="none" x="13" y="583">-bookCategoryMapper: BookCategoryMapper</text></g></g><g transform="translate(2,-10) scale(1,1)"><g><path fill="none" stroke="none"/><text fill="#000000" stroke="none" font-family="Arial" font-size="13px" font-style="normal" font-weight="normal" text-decoration="none" x="13" y="606">+adminIsExist(name: String): boolean</text></g></g><g transform="translate(2,-10) scale(1,1)"><g><path fill="none" stroke="none"/><text fill="#000000" stroke="none" font-family="Arial" font-size="13px" font-style="normal" font-weight="normal" text-decoration="none" x="13" y="621">+adminLogin(name: String, password: String): boolean</text></g></g><g transform="translate(2,-10) scale(1,1)"><g><path fill="none" stroke="none"/><text fill="#000000" stroke="none" font-family="Arial" font-size="13px" font-style="normal" font-weight="normal" text-decoration="none" x="13" y="636">+addBook(book: Book): boolean</text></g></g><g transform="translate(2,-10) scale(1,1)"><g><path fill="none" stroke="none"/><text fill="#000000" stroke="none" font-family="Arial" font-size="13px" font-style="normal" font-weight="normal" text-decoration="none" x="13" y="651">+getBookCategorys(): BookCategory[*]</text></g></g><g transform="translate(2,-10) scale(1,1)"><g><path fill="none" stroke="none"/><text fill="#000000" stroke="none" font-family="Arial" font-size="13px" font-style="normal" font-weight="normal" text-decoration="none" x="13" y="666">+addBookCategory(bookCategory: BookCategory): boolean</text></g></g><g transform="translate(2,-10) scale(1,1)"><rect fill="#C0C0C0" stroke="none" x="159" y="351" width="329.47412109375" height="85" opacity="0.2"/></g><g transform="translate(2,-10) scale(1,1)"><rect fill="#ffffff" stroke="none" x="152" y="344" width="329.47412109375" height="85"/></g><g transform="translate(2,-10) scale(1,1)"><path fill="none" stroke="#000000" d="M 152 344 L 481.47412109375 344 L 481.47412109375 429 L 152 429 L 152 344 Z Z" stroke-miterlimit="10"/></g><g transform="translate(2,-10) scale(1,1)"><path fill="none" stroke="#000000" d="M 152 369 L 481.47412109375 369" stroke-miterlimit="10"/></g><g transform="translate(2,-10) scale(1,1)"><path fill="none" stroke="#000000" d="M 152 392 L 481.47412109375 392" stroke-miterlimit="10"/></g><g transform="translate(2,-10) scale(1,1)"><g><path fill="none" stroke="none"/><text fill="#000000" stroke="none" font-family="Arial" font-size="13px" font-style="normal" font-weight="bold" text-decoration="none" x="235.8203125" y="362">BookCategoryServiceImpl</text></g></g><g transform="translate(2,-10) scale(1,1)"><g><path fill="none" stroke="none"/><text fill="#000000" stroke="none" font-family="Arial" font-size="13px" font-style="normal" font-weight="normal" text-decoration="none" x="157" y="385">-bookCategoryMapper: BookCategoryMapper</text></g></g><g transform="translate(2,-10) scale(1,1)"><g><path fill="none" stroke="none"/><text fill="#000000" stroke="none" font-family="Arial" font-size="13px" font-style="normal" font-weight="normal" text-decoration="none" x="157" y="408">+selectBookCategoryByPageNum(pageNum: int): Page</text></g></g><g transform="translate(2,-10) scale(1,1)"><g><path fill="none" stroke="none"/><text fill="#000000" stroke="none" font-family="Arial" font-size="13px" font-style="normal" font-weight="normal" text-decoration="none" x="157" y="423">+deleteBookCategoryById(bookCategoryId: int): int</text></g></g><g transform="translate(2,-10) scale(1,1)"><rect fill="#C0C0C0" stroke="none" x="327" y="231" width="364.8876953125" height="100" opacity="0.2"/></g><g transform="translate(2,-10) scale(1,1)"><rect fill="#ffffff" stroke="none" x="320" y="224" width="364.8876953125" height="100"/></g><g transform="translate(2,-10) scale(1,1)"><path fill="none" stroke="#000000" d="M 320 224 L 684.8876953125 224 L 684.8876953125 324 L 320 324 L 320 224 Z Z" stroke-miterlimit="10"/></g><g transform="translate(2,-10) scale(1,1)"><path fill="none" stroke="#000000" d="M 320 249 L 684.8876953125 249" stroke-miterlimit="10"/></g><g transform="translate(2,-10) scale(1,1)"><path fill="none" stroke="#000000" d="M 320 287 L 684.8876953125 287" stroke-miterlimit="10"/></g><g transform="translate(2,-10) scale(1,1)"><g><path fill="none" stroke="none"/><text fill="#000000" stroke="none" font-family="Arial" font-size="13px" font-style="normal" font-weight="bold" text-decoration="none" x="449.701171875" y="242">BookServiceImpl</text></g></g><g transform="translate(2,-10) scale(1,1)"><g><path fill="none" stroke="none"/><text fill="#000000" stroke="none" font-family="Arial" font-size="13px" font-style="normal" font-weight="normal" text-decoration="none" x="325" y="265">-bookMapper: BookMapper</text></g></g><g transform="translate(2,-10) scale(1,1)"><g><path fill="none" stroke="none"/><text fill="#000000" stroke="none" font-family="Arial" font-size="13px" font-style="normal" font-weight="normal" text-decoration="none" x="325" y="280">-borrowingBooksMapper: BorrowingBooksMapper</text></g></g><g transform="translate(2,-10) scale(1,1)"><g><path fill="none" stroke="none"/><text fill="#000000" stroke="none" font-family="Arial" font-size="13px" font-style="normal" font-weight="normal" text-decoration="none" x="325" y="303">+findBooksByBookName(bookName: String): BookVo[*]</text></g></g><g transform="translate(2,-10) scale(1,1)"><g><path fill="none" stroke="none"/><text fill="#000000" stroke="none" font-family="Arial" font-size="13px" font-style="normal" font-weight="normal" text-decoration="none" x="325" y="318">+findBooksByCategoryId(categoryId: int, pageNum: int): Page</text></g></g><g transform="translate(2,-10) scale(1,1)"><rect fill="#C0C0C0" stroke="none" x="503" y="111" width="445.083984375" height="115" opacity="0.2"/></g><g transform="translate(2,-10) scale(1,1)"><rect fill="#ffffff" stroke="none" x="496" y="104" width="445.083984375" height="115"/></g><g transform="translate(2,-10) scale(1,1)"><path fill="none" stroke="#000000" d="M 496 104 L 941.083984375 104 L 941.083984375 219 L 496 219 L 496 104 Z Z" stroke-miterlimit="10"/></g><g transform="translate(2,-10) scale(1,1)"><path fill="none" stroke="#000000" d="M 496 129 L 941.083984375 129" stroke-miterlimit="10"/></g><g transform="translate(2,-10) scale(1,1)"><path fill="none" stroke="#000000" d="M 496 182 L 941.083984375 182" stroke-miterlimit="10"/></g><g transform="translate(2,-10) scale(1,1)"><g><path fill="none" stroke="none"/><text fill="#000000" stroke="none" font-family="Arial" font-size="13px" font-style="normal" font-weight="bold" text-decoration="none" x="607.29296875" y="122">BorrowingBooksRecordServiceImpl</text></g></g><g transform="translate(2,-10) scale(1,1)"><g><path fill="none" stroke="none"/><text fill="#000000" stroke="none" font-family="Arial" font-size="13px" font-style="normal" font-weight="normal" text-decoration="none" x="501" y="145">-borrowingBooksMapper: BorrowingBooksMapper</text></g></g><g transform="translate(2,-10) scale(1,1)"><g><path fill="none" stroke="none"/><text fill="#000000" stroke="none" font-family="Arial" font-size="13px" font-style="normal" font-weight="normal" text-decoration="none" x="501" y="160">-bookMapper: BookMapper</text></g></g><g transform="translate(2,-10) scale(1,1)"><g><path fill="none" stroke="none"/><text fill="#000000" stroke="none" font-family="Arial" font-size="13px" font-style="normal" font-weight="normal" text-decoration="none" x="501" y="175">-userMapper: UserMapper</text></g></g><g transform="translate(2,-10) scale(1,1)"><g><path fill="none" stroke="none"/><text fill="#000000" stroke="none" font-family="Arial" font-size="13px" font-style="normal" font-weight="normal" text-decoration="none" x="501" y="198">+userSelectByPageNum(pageNum: int, request: HttpServletRequest): Page</text></g></g><g transform="translate(2,-10) scale(1,1)"><g><path fill="none" stroke="none"/><text fill="#000000" stroke="none" font-family="Arial" font-size="13px" font-style="normal" font-weight="normal" text-decoration="none" x="501" y="213">+selectAllByPage(pageNum: int): Page</text></g></g><g transform="translate(2,-10) scale(1,1)"><rect fill="#C0C0C0" stroke="none" x="535" y="359" width="447.9658203125" height="265" opacity="0.2"/></g><g transform="translate(2,-10) scale(1,1)"><rect fill="#ffffff" stroke="none" x="528" y="352" width="447.9658203125" height="265"/></g><g transform="translate(2,-10) scale(1,1)"><path fill="none" stroke="#000000" d="M 528 352 L 975.9658203125 352 L 975.9658203125 617 L 528 617 L 528 352 Z Z" stroke-miterlimit="10"/></g><g transform="translate(2,-10) scale(1,1)"><path fill="none" stroke="#000000" d="M 528 377 L 975.9658203125 377" stroke-miterlimit="10"/></g><g transform="translate(2,-10) scale(1,1)"><path fill="none" stroke="#000000" d="M 528 445 L 975.9658203125 445" stroke-miterlimit="10"/></g><g transform="translate(2,-10) scale(1,1)"><g><path fill="none" stroke="none"/><text fill="#000000" stroke="none" font-family="Arial" font-size="13px" font-style="normal" font-weight="bold" text-decoration="none" x="701.03662109375" y="370">UserServiceImpl</text></g></g><g transform="translate(2,-10) scale(1,1)"><g><path fill="none" stroke="none"/><text fill="#000000" stroke="none" font-family="Arial" font-size="13px" font-style="normal" font-weight="normal" text-decoration="none" x="533" y="393">-userMapper: UserMapper</text></g></g><g transform="translate(2,-10) scale(1,1)"><g><path fill="none" stroke="none"/><text fill="#000000" stroke="none" font-family="Arial" font-size="13px" font-style="normal" font-weight="normal" text-decoration="none" x="533" y="408">-departmentMapper: DepartmentMapper</text></g></g><g transform="translate(2,-10) scale(1,1)"><g><path fill="none" stroke="none"/><text fill="#000000" stroke="none" font-family="Arial" font-size="13px" font-style="normal" font-weight="normal" text-decoration="none" x="533" y="423">-borrowingBooksMapper: BorrowingBooksMapper</text></g></g><g transform="translate(2,-10) scale(1,1)"><g><path fill="none" stroke="none"/><text fill="#000000" stroke="none" font-family="Arial" font-size="13px" font-style="normal" font-weight="normal" text-decoration="none" x="533" y="438">-bookMapper: BookMapper</text></g></g><g transform="translate(2,-10) scale(1,1)"><g><path fill="none" stroke="none"/><text fill="#000000" stroke="none" font-family="Arial" font-size="13px" font-style="normal" font-weight="normal" text-decoration="none" x="533" y="461">+findUserByUserName(userName: String): User[*]</text></g></g><g transform="translate(2,-10) scale(1,1)"><g><path fill="none" stroke="none"/><text fill="#000000" stroke="none" font-family="Arial" font-size="13px" font-style="normal" font-weight="normal" text-decoration="none" x="533" y="476">+findAllDepts(): Department[*]</text></g></g><g transform="translate(2,-10) scale(1,1)"><g><path fill="none" stroke="none"/><text fill="#000000" stroke="none" font-family="Arial" font-size="13px" font-style="normal" font-weight="normal" text-decoration="none" x="533" y="491">+userLogin(userName: String, password: String): User</text></g></g><g transform="translate(2,-10) scale(1,1)"><g><path fill="none" stroke="none"/><text fill="#000000" stroke="none" font-family="Arial" font-size="13px" font-style="normal" font-weight="normal" text-decoration="none" x="533" y="506">+updateUser(user: User, request: HttpServletRequest): boolean</text></g></g><g transform="translate(2,-10) scale(1,1)"><g><path fill="none" stroke="none"/><text fill="#000000" stroke="none" font-family="Arial" font-size="13px" font-style="normal" font-weight="normal" text-decoration="none" x="533" y="521">+findAllBorrowingBooks(request: HttpServletRequest): BorrowingBooksVo[*]</text></g></g><g transform="translate(2,-10) scale(1,1)"><g><path fill="none" stroke="none"/><text fill="#000000" stroke="none" font-family="Arial" font-size="13px" font-style="normal" font-weight="normal" text-decoration="none" x="533" y="536">+userReturnBook(bookId: int, request: HttpServletRequest): boolean</text></g></g><g transform="translate(2,-10) scale(1,1)"><g><path fill="none" stroke="none"/><text fill="#000000" stroke="none" font-family="Arial" font-size="13px" font-style="normal" font-weight="normal" text-decoration="none" x="533" y="551">+userBorrowingBook(bookId: int, request: HttpServletRequest): boolean</text></g></g><g transform="translate(2,-10) scale(1,1)"><g><path fill="none" stroke="none"/><text fill="#000000" stroke="none" font-family="Arial" font-size="13px" font-style="normal" font-weight="normal" text-decoration="none" x="533" y="566">+findUserById(id: int): User</text></g></g><g transform="translate(2,-10) scale(1,1)"><g><path fill="none" stroke="none"/><text fill="#000000" stroke="none" font-family="Arial" font-size="13px" font-style="normal" font-weight="normal" text-decoration="none" x="533" y="581">+findUserByPage(pageNum: int): Page</text></g></g><g transform="translate(2,-10) scale(1,1)"><g><path fill="none" stroke="none"/><text fill="#000000" stroke="none" font-family="Arial" font-size="13px" font-style="normal" font-weight="normal" text-decoration="none" x="533" y="596">+insertUser(user: User): int</text></g></g><g transform="translate(2,-10) scale(1,1)"><g><path fill="none" stroke="none"/><text fill="#000000" stroke="none" font-family="Arial" font-size="13px" font-style="normal" font-weight="normal" text-decoration="none" x="533" y="611">+deleteUserById(userId: int): int</text></g></g><g transform="translate(2,-10) scale(1,1)"><path fill="none" stroke="#000000" d="M 167 511 L 76 69" stroke-miterlimit="10"/></g><g transform="translate(2,-10) scale(1,1)"><path fill="#FFFFFF" stroke="none" d="M 88.34474976341646 87.21008383502473 L 76 69 L 71.8525825040413 90.60553003548434"/></g><g transform="translate(2,-10) scale(1,1)"><path fill="none" stroke="#000000" d="M 88.34474976341646 87.21008383502473 L 76 69 L 71.8525825040413 90.60553003548434 L 88.34474976341646 87.21008383502473" stroke-miterlimit="10"/></g><g transform="translate(2,-10) scale(1,1)"><path fill="none" stroke="#000000" d="M 305 343 L 237 69" stroke-miterlimit="10"/></g><g transform="translate(2,-10) scale(1,1)"><path fill="#FFFFFF" stroke="none" d="M 250.06689415670292 86.69904734999947 L 237 69 L 233.72457306552508 90.75480586897793"/></g><g transform="translate(2,-10) scale(1,1)"><path fill="none" stroke="#000000" d="M 250.06689415670292 86.69904734999947 L 237 69 L 233.72457306552508 90.75480586897793 L 250.06689415670292 86.69904734999947" stroke-miterlimit="10"/></g><g transform="translate(2,-10) scale(1,1)"><path fill="none" stroke="#000000" d="M 477 223 L 400 69" stroke-miterlimit="10"/></g><g transform="translate(2,-10) scale(1,1)"><path fill="#FFFFFF" stroke="none" d="M 416.61998700990557 83.41443830992283 L 400 69 L 401.55955844199497 90.94465259387813"/></g><g transform="translate(2,-10) scale(1,1)"><path fill="none" stroke="#000000" d="M 416.61998700990557 83.41443830992283 L 400 69 L 401.55955844199497 90.94465259387813 L 416.61998700990557 83.41443830992283" stroke-miterlimit="10"/></g><g transform="translate(2,-10) scale(1,1)"><path fill="none" stroke="#000000" d="M 646 103 L 603 69" stroke-miterlimit="10"/></g><g transform="translate(2,-10) scale(1,1)"><path fill="#FFFFFF" stroke="none" d="M 624.1653066285696 75.00248242968094 L 603 69 L 613.7217358129736 88.21052787293463"/></g><g transform="translate(2,-10) scale(1,1)"><path fill="none" stroke="#000000" d="M 624.1653066285696 75.00248242968094 L 603 69 L 613.7217358129736 88.21052787293463 L 624.1653066285696 75.00248242968094" stroke-miterlimit="10"/></g><g transform="translate(2,-10) scale(1,1)"><path fill="none" stroke="#000000" d="M 777 351 L 831 69" stroke-miterlimit="10"/></g><g transform="translate(2,-10) scale(1,1)"><path fill="#FFFFFF" stroke="none" d="M 835.4461647633625 90.54603487644616 L 831 69 L 818.9085658856294 87.37926062326322"/></g><g transform="translate(2,-10) scale(1,1)"><path fill="none" stroke="#000000" d="M 835.4461647633625 90.54603487644616 L 831 69 L 818.9085658856294 87.37926062326322 L 835.4461647633625 90.54603487644616" stroke-miterlimit="10"/></g></g><!-- Code injected by live-server -->
<script>
	// <![CDATA[  <-- For SVG support
	if ('WebSocket' in window) {
		(function () {
			function refreshCSS() {
				var sheets = [].slice.call(document.getElementsByTagName("link"));
				var head = document.getElementsByTagName("head")[0];
				for (var i = 0; i < sheets.length; ++i) {
					var elem = sheets[i];
					var parent = elem.parentElement || head;
					parent.removeChild(elem);
					var rel = elem.rel;
					if (elem.href && typeof rel != "string" || rel.length == 0 || rel.toLowerCase() == "stylesheet") {
						var url = elem.href.replace(/(&|\?)_cacheOverride=\d+/, '');
						elem.href = url + (url.indexOf('?') >= 0 ? '&' : '?') + '_cacheOverride=' + (new Date().valueOf());
					}
					parent.appendChild(elem);
				}
			}
			var protocol = window.location.protocol === 'http:' ? 'ws://' : 'wss://';
			var address = protocol + window.location.host + window.location.pathname + '/ws';
			var socket = new WebSocket(address);
			socket.onmessage = function (msg) {
				if (msg.data == 'reload') window.location.reload();
				else if (msg.data == 'refreshcss') refreshCSS();
			};
			if (sessionStorage && !sessionStorage.getItem('IsThisFirstTime_Log_From_LiveServer')) {
				console.log('Live reload enabled.');
				sessionStorage.setItem('IsThisFirstTime_Log_From_LiveServer', true);
			}
		})();
	}
	else {
		console.error('Upgrade your browser. This Browser is NOT supported WebSocket for Live-Reloading.');
	}
	// ]]>
</script>
</svg>